<?xml version="1.0" encoding="UTF-8" standalone="no"?>
<svg width="26px" height="22px" viewBox="0 0 26 22" version="1.1" xmlns="http://www.w3.org/2000/svg" xmlns:xlink="http://www.w3.org/1999/xlink">
    <!-- Generator: Sketch 3.6.1 (26313) - http://www.bohemiancoding.com/sketch -->
    <title>Untitled 2</title>
    <desc>Created with Sketch.</desc>
    <defs></defs>
    <g id="Page-1" stroke="none" stroke-width="1" fill="none" fill-rule="evenodd">
        <path d="M25.714286,18.357143 L25.714286,20.5 C25.714286,20.790179 25.608259,21.041295 25.396205,21.253348 C25.184152,21.465402 24.933036,21.571429 24.642857,21.571429 L1.071429,21.571429 C0.78125,21.571429 0.530134,21.465402 0.31808,21.253348 C0.106027,21.041295 0,20.790179 0,20.5 L0,18.357143 C0,18.066964 0.106027,17.815848 0.31808,17.603795 C0.530134,17.391741 0.78125,17.285714 1.071429,17.285714 L24.642857,17.285714 C24.933036,17.285714 25.184152,17.391741 25.396205,17.603795 C25.608259,17.815848 25.714286,18.066964 25.714286,18.357143 L25.714286,18.357143 Z M25.714286,9.785714 L25.714286,11.928571 C25.714286,12.21875 25.608259,12.469866 25.396205,12.68192 C25.184152,12.893973 24.933036,13 24.642857,13 L1.071429,13 C0.78125,13 0.530134,12.893973 0.31808,12.68192 C0.106027,12.469866 0,12.21875 0,11.928571 L0,9.785714 C0,9.495536 0.106027,9.24442 0.31808,9.032366 C0.530134,8.820312 0.78125,8.714286 1.071429,8.714286 L24.642857,8.714286 C24.933036,8.714286 25.184152,8.820312 25.396205,9.032366 C25.608259,9.24442 25.714286,9.495536 25.714286,9.785714 L25.714286,9.785714 Z M25.714286,1.214286 L25.714286,3.357143 C25.714286,3.647321 25.608259,3.898438 25.396205,4.110491 C25.184152,4.322545 24.933036,4.428571 24.642857,4.428571 L1.071429,4.428571 C0.78125,4.428571 0.530134,4.322545 0.31808,4.110491 C0.106027,3.898438 0,3.647321 0,3.357143 L0,1.214286 C0,0.924107 0.106027,0.672991 0.31808,0.460938 C0.530134,0.248884 0.78125,0.142857 1.071429,0.142857 L24.642857,0.142857 C24.933036,0.142857 25.184152,0.248884 25.396205,0.460938 C25.608259,0.672991 25.714286,0.924107 25.714286,1.214286 L25.714286,1.214286 Z" id="Shape" fill="#9B9B9B"></path>
    </g>
</svg>