<svg width="24" height="24" viewBox="0 0 24 24" fill="none" xmlns="http://www.w3.org/2000/svg"><rect width="24" height="24" fill="none" rx="0" ry="0"></rect><path fill-rule="evenodd" clip-rule="evenodd" d="M3 5.99902C3 5.18286 3.92495 4.71042 4.58618 5.18885L12.8802 11.1898C13.432 11.589 13.432 12.4109 12.8802 12.8101L4.58618 18.8111C3.92495 19.2895 3 18.8171 3 18.0009V5.99902ZM18 6.00001C18 5.44772 18.4477 5.00001 19 5.00001H20C20.5523 5.00001 21 5.44772 21 6.00001V18C21 18.5523 20.5523 19 20 19H19C18.4477 19 18 18.5523 18 18V6.00001ZM15 5.00001C14.4477 5.00001 14 5.44772 14 6.00001V18C14 18.5523 14.4477 19 15 19H16C16.5523 19 17 18.5523 17 18V6.00001C17 5.44772 16.5523 5.00001 16 5.00001H15Z" fill="#fc3"></path></svg>